<?xml version="1.0" encoding="UTF-8"?>
<svg xmlns="http://www.w3.org/2000/svg" xmlns:xlink="http://www.w3.org/1999/xlink" width="226.77pt" height="226.77pt" viewBox="0 0 226.77 226.77" version="1.1">
<defs>
<clipPath id="clip1">
  <path d="M 0 0 L 226.769531 0 L 226.769531 226.769531 L 0 226.769531 Z M 0 0 "/>
</clipPath>
</defs>
<g id="surface1">
<g clip-path="url(#clip1)" clip-rule="nonzero">
<path style=" stroke:none;fill-rule:nonzero;fill:rgb(100%,100%,100%);fill-opacity:1;" d="M 0 226.769531 L 226.769531 226.769531 L 226.769531 0 L 0 0 Z M 0 226.769531 "/>
</g>
<path style=" stroke:none;fill-rule:nonzero;fill:rgb(0%,0%,0%);fill-opacity:1;" d="M 72.019531 113.199219 L 61.664063 113.199219 C 61.664063 108.152344 58.882813 105.625 53.324219 105.625 C 51.097656 105.625 49.210938 106.171875 47.660156 107.257813 C 46.105469 108.34375 45.332031 109.949219 45.332031 112.078125 C 45.332031 114.4375 46.046875 116.011719 47.484375 116.796875 C 48.917969 117.585938 51.976563 118.566406 56.660156 119.746094 C 61.335938 120.925781 65.300781 122.382813 68.542969 124.117188 C 71.785156 125.855469 73.410156 128.917969 73.410156 133.3125 C 73.410156 139.046875 71.324219 143.269531 67.152344 145.976563 C 62.984375 148.683594 57.863281 150.035156 51.792969 150.035156 C 45.675781 150.035156 40.941406 148.703125 37.582031 146.039063 C 34.21875 143.375 32.542969 139.011719 32.542969 132.9375 L 43.523438 132.9375 C 43.523438 135.8125 44.226563 138.082031 45.644531 139.75 C 47.054688 141.417969 49.152344 142.25 51.933594 142.25 C 54.574219 142.25 56.902344 141.742188 58.917969 140.722656 C 60.933594 139.707031 61.941406 137.996094 61.941406 135.589844 C 61.941406 133.09375 61.210938 131.53125 59.75 130.90625 C 58.292969 130.28125 55.175781 129.367188 50.402344 128.164063 C 45.628906 126.960938 41.679688 125.355469 38.554688 123.34375 C 35.425781 121.332031 33.863281 118.335938 33.863281 114.355469 C 33.863281 108.988281 35.914063 104.894531 40.011719 102.074219 C 44.113281 99.253906 49.015625 97.839844 54.710938 97.839844 C 59.761719 97.839844 63.910156 99.183594 67.152344 101.871094 C 70.394531 104.558594 72.019531 108.335938 72.019531 113.199219 "/>
<path style=" stroke:none;fill-rule:nonzero;fill:rgb(0%,0%,0%);fill-opacity:1;" d="M 80.496094 149.0625 L 80.496094 98.882813 L 117.582031 98.882813 L 117.582031 107.222656 L 91.269531 107.222656 L 91.269531 118.96875 L 108.816406 118.96875 L 108.816406 127.308594 L 91.269531 127.308594 L 91.269531 140.722656 L 117.582031 140.722656 L 117.582031 149.0625 "/>
<path style=" stroke:none;fill-rule:nonzero;fill:rgb(0%,0%,0%);fill-opacity:1;" d="M 146.929688 141.316406 C 137.789063 141.316406 130.378906 133.539063 130.378906 123.945313 C 130.378906 114.351563 137.789063 106.574219 146.929688 106.574219 C 156.074219 106.574219 163.484375 114.351563 163.484375 123.945313 C 163.484375 133.539063 156.074219 141.316406 146.929688 141.316406 M 146.929688 97.839844 C 132.515625 97.839844 120.832031 109.527344 120.832031 123.945313 C 120.832031 138.363281 132.515625 150.050781 146.929688 150.050781 C 161.34375 150.050781 173.027344 138.363281 173.027344 123.945313 C 173.027344 109.527344 161.34375 97.839844 146.929688 97.839844 "/>
<path style=" stroke:none;fill-rule:nonzero;fill:rgb(100%,0%,0%);fill-opacity:1;" d="M 181.578125 89.367188 L 181.578125 76.71875 L 173.238281 76.71875 L 173.238281 89.367188 L 160.589844 89.367188 L 160.589844 97.707031 L 173.238281 97.707031 L 173.238281 110.355469 L 181.578125 110.355469 L 181.578125 97.707031 L 194.230469 97.707031 L 194.230469 89.367188 "/>
</g>
</svg>
